<svg width="41" height="40" viewBox="0 0 41 40" fill="none" xmlns="http://www.w3.org/2000/svg">
<g id="ph:arrow-up-light">
<path id="Vector" d="M22.3373 31.9126C22.1618 31.7368 22.0632 31.4985 22.0632 31.2501C22.0632 31.0016 22.1618 30.7633 22.3373 30.5876L31.9858 20.9376L6.74985 20.9376C6.50121 20.9376 6.26275 20.8388 6.08693 20.663C5.91112 20.4871 5.81235 20.2487 5.81235 20.0001C5.81235 19.7514 5.91112 19.513 6.08693 19.3371C6.26275 19.1613 6.50121 19.0626 6.74985 19.0626L31.9858 19.0626L22.3373 9.41255C22.1717 9.23483 22.0816 8.99977 22.0859 8.7569C22.0902 8.51402 22.1886 8.28229 22.3603 8.11052C22.5321 7.93876 22.7638 7.84037 23.0067 7.83608C23.2496 7.8318 23.4846 7.92195 23.6623 8.08755L34.9123 19.3376C35.0879 19.5133 35.1865 19.7516 35.1865 20.0001C35.1865 20.2485 35.0879 20.4868 34.9123 20.6626L23.6623 31.9126C23.4866 32.0881 23.2483 32.1867 22.9998 32.1867C22.7514 32.1867 22.5131 32.0881 22.3373 31.9126Z" fill="black"/>
</g>
</svg>
