<?xml version="1.0" encoding="UTF-8"?>
<svg xmlns="http://www.w3.org/2000/svg" width="195" height="208" viewBox="0 0 195 208" fill="none">
  <path id="Vector" d="M160.97 207.239C171.336 201.518 185.126 193.512 194.261 186.196M194.261 186.196C195.313 185.353 186.936 179.674 186.528 179.445C177.577 174.409 168.241 170.7 158.645 167.123M194.261 186.196C132.478 204.164 72.1738 179.765 53.4294 137.898C51.5715 133.749 49.5538 129.231 47.9469 124.552M47.9469 124.552C45.3879 117.102 43.8709 109.245 45.7009 101.826C47.3901 94.9795 52.4749 86.7716 59.582 84.7892C72.8585 81.0865 83.412 96.0132 78.5355 108.37C74.2505 119.229 59.1252 127.454 47.9469 124.552ZM47.9469 124.552C47.7111 124.491 47.4771 124.425 47.245 124.354C-8.78525 107.168 -9.71431 38.2681 20.3668 0.916919" stroke="#68842E" stroke-miterlimit="1.5" stroke-linecap="round" stroke-linejoin="round" stroke-dasharray="16.32 16.32"></path>
</svg>
