<svg width="17" height="16" viewBox="0 0 17 16" fill="none" xmlns="http://www.w3.org/2000/svg">
<path id="instagram" fill-rule="evenodd" clip-rule="evenodd" d="M0.980957 12.1002C0.980957 13.8447 2.39536 15.2585 4.13964 15.2585H13.081C14.8254 15.2585 16.2395 13.8447 16.2395 12.1002V3.15851C16.2395 1.41411 14.8254 0 13.081 0H4.13964C2.39531 0 0.980957 1.41406 0.980957 3.15851V12.1002ZM4.13964 14.2585C2.94745 14.2585 1.98096 13.2923 1.98096 12.1002V3.15851C1.98096 1.96644 2.9475 1 4.13964 1H13.081C14.2731 1 15.2395 1.96638 15.2395 3.15851V12.1002C15.2395 13.2923 14.2732 14.2585 13.081 14.2585H4.13964ZM12.7679 2.5976C13.3035 2.59066 13.7561 3.03413 13.7536 3.56206C13.7506 4.06842 13.3163 4.50203 12.7975 4.51702C12.2637 4.53201 11.8013 4.09657 11.7917 3.57083C11.7822 3.03888 12.218 2.60455 12.7679 2.5976ZM11.7233 7.6294C11.7233 9.34869 10.3295 10.7424 8.61023 10.7424C6.89094 10.7424 5.49719 9.34869 5.49719 7.6294C5.49719 5.91012 6.89094 4.51636 8.61023 4.51636C10.3295 4.51636 11.7233 5.91012 11.7233 7.6294ZM12.7233 7.6294C12.7233 9.90097 10.8818 11.7424 8.61023 11.7424C6.33866 11.7424 4.49719 9.90097 4.49719 7.6294C4.49719 5.35783 6.33866 3.51636 8.61023 3.51636C10.8818 3.51636 12.7233 5.35783 12.7233 7.6294Z" fill="white"/>
</svg>
