<svg width="32" height="32" viewBox="0 0 32 32" fill="none" xmlns="http://www.w3.org/2000/svg">
<g id="material-symbols:language">
<path id="Vector" d="M15.9998 29.3332C14.1776 29.3332 12.4554 28.9829 10.8332 28.2825C9.21095 27.5821 7.79406 26.6265 6.58251 25.4158C5.37184 24.2052 4.41628 22.7887 3.71584 21.1665C3.01539 19.5443 2.66562 17.8221 2.66651 15.9998C2.66651 14.1554 3.01673 12.4274 3.71717 10.8158C4.41762 9.20428 5.37317 7.79362 6.58384 6.58384C7.79451 5.37228 9.21051 4.41673 10.8318 3.71717C12.4532 3.01762 14.1758 2.66739 15.9998 2.6665C17.8443 2.6665 19.5723 3.01673 21.1838 3.71717C22.7954 4.41762 24.2061 5.37317 25.4158 6.58384C26.6274 7.7945 27.583 9.20562 28.2825 10.8172C28.9821 12.4287 29.3323 14.1563 29.3332 15.9998C29.3332 17.8221 28.983 19.5443 28.2825 21.1665C27.5821 22.7887 26.6265 24.2056 25.4158 25.4172C24.2052 26.6278 22.7941 27.5834 21.1825 28.2838C19.5709 28.9843 17.8434 29.3341 15.9998 29.3332ZM15.9998 26.5998C16.5776 25.7998 17.0776 24.9665 17.4998 24.0998C17.9221 23.2332 18.2665 22.3109 18.5332 21.3332H13.4665C13.7332 22.3109 14.0776 23.2332 14.4998 24.0998C14.9221 24.9665 15.4221 25.7998 15.9998 26.5998ZM12.5332 26.0665C12.1332 25.3332 11.783 24.5718 11.4825 23.7825C11.1821 22.9932 10.9323 22.1767 10.7332 21.3332H6.79984C7.44428 22.4443 8.25006 23.4109 9.21717 24.2332C10.1843 25.0554 11.2896 25.6665 12.5332 26.0665ZM19.4665 26.0665C20.711 25.6665 21.8167 25.0554 22.7838 24.2332C23.7509 23.4109 24.5563 22.4443 25.1998 21.3332H21.2665C21.0665 22.1776 20.8167 22.9945 20.5172 23.7838C20.2176 24.5732 19.8674 25.3341 19.4665 26.0665ZM5.66651 18.6665H10.1998C10.1332 18.2221 10.083 17.7829 10.0492 17.3492C10.0154 16.9154 9.99895 16.4656 9.99984 15.9998C9.99984 15.5332 10.0167 15.0834 10.0505 14.6505C10.0843 14.2176 10.1341 13.7785 10.1998 13.3332H5.66651C5.55539 13.7776 5.47184 14.2167 5.41584 14.6505C5.35984 15.0843 5.33228 15.5341 5.33317 15.9998C5.33317 16.4665 5.36117 16.9163 5.41717 17.3492C5.47317 17.7821 5.55628 18.2212 5.66651 18.6665ZM12.8665 18.6665H19.1332C19.1998 18.2221 19.2501 17.7829 19.2838 17.3492C19.3176 16.9154 19.3341 16.4656 19.3332 15.9998C19.3332 15.5332 19.3163 15.0834 19.2825 14.6505C19.2487 14.2176 19.1989 13.7785 19.1332 13.3332H12.8665C12.7998 13.7776 12.7496 14.2167 12.7158 14.6505C12.6821 15.0843 12.6656 15.5341 12.6665 15.9998C12.6665 16.4665 12.6834 16.9163 12.7172 17.3492C12.751 17.7821 12.8007 18.2212 12.8665 18.6665ZM21.7998 18.6665H26.3332C26.4443 18.2221 26.5278 17.7829 26.5838 17.3492C26.6398 16.9154 26.6674 16.4656 26.6665 15.9998C26.6665 15.5332 26.6385 15.0834 26.5825 14.6505C26.5265 14.2176 26.4434 13.7785 26.3332 13.3332H21.7998C21.8665 13.7776 21.9167 14.2167 21.9505 14.6505C21.9843 15.0843 22.0007 15.5341 21.9998 15.9998C21.9998 16.4665 21.983 16.9163 21.9492 17.3492C21.9154 17.7821 21.8656 18.2212 21.7998 18.6665ZM21.2665 10.6665H25.1998C24.5554 9.55539 23.7501 8.58873 22.7838 7.7665C21.8176 6.94428 20.7118 6.33317 19.4665 5.93317C19.8665 6.6665 20.2167 7.42784 20.5172 8.21717C20.8176 9.0065 21.0674 9.82295 21.2665 10.6665ZM13.4665 10.6665H18.5332C18.2665 9.68873 17.9221 8.7665 17.4998 7.89984C17.0776 7.03317 16.5776 6.19984 15.9998 5.39984C15.4221 6.19984 14.9221 7.03317 14.4998 7.89984C14.0776 8.7665 13.7332 9.68873 13.4665 10.6665ZM6.79984 10.6665H10.7332C10.9332 9.82206 11.1834 9.00517 11.4838 8.21584C11.7843 7.4265 12.1341 6.66561 12.5332 5.93317C11.2887 6.33317 10.183 6.94428 9.21584 7.7665C8.24873 8.58873 7.44339 9.55539 6.79984 10.6665Z" fill="white"/>
</g>
</svg>
