<svg width="23" height="23" viewBox="0 0 23 23" fill="none" xmlns="http://www.w3.org/2000/svg">
<g id="quill:mail">
<path id="Vector" d="M20.5669 6.31738V15.9424C20.5669 16.3071 20.422 16.6568 20.1642 16.9147C19.9063 17.1725 19.5566 17.3174 19.1919 17.3174H4.06689C3.70222 17.3174 3.35249 17.1725 3.09462 16.9147C2.83676 16.6568 2.69189 16.3071 2.69189 15.9424V6.31738M20.5669 6.31738C20.5669 5.95271 20.422 5.60297 20.1642 5.34511C19.9063 5.08725 19.5566 4.94238 19.1919 4.94238H4.06689C3.70222 4.94238 3.35249 5.08725 3.09462 5.34511C2.83676 5.60297 2.69189 5.95271 2.69189 6.31738M20.5669 6.31738L12.4118 11.9631C12.1819 12.1222 11.909 12.2074 11.6294 12.2074C11.3498 12.2074 11.0769 12.1222 10.847 11.9631L2.69189 6.31738" stroke="white" stroke-linecap="round" stroke-linejoin="round"/>
</g>
</svg>
