<svg width="23" height="23" viewBox="0 0 23 23" fill="none" xmlns="http://www.w3.org/2000/svg">
<g id="ph:phone-light">
<path id="Vector" d="M19.9325 13.9058L15.8729 12.0865C15.6889 12.0077 15.4882 11.976 15.289 11.9943C15.0897 12.0126 14.8981 12.0803 14.7316 12.1913C14.7147 12.2022 14.6986 12.2142 14.6835 12.2274L12.5617 14.0321C12.5397 14.0441 12.5152 14.0508 12.4901 14.0517C12.4651 14.0526 12.4401 14.0477 12.4173 14.0373C11.0535 13.379 9.64067 11.9748 8.97982 10.6298C8.96881 10.6074 8.96309 10.5827 8.96309 10.5576C8.96309 10.5326 8.96881 10.5079 8.97982 10.4855L10.7905 8.33702C10.8035 8.32113 10.8156 8.30448 10.8266 8.28718C10.9361 8.12004 11.0022 7.92826 11.019 7.72916C11.0358 7.53007 11.0028 7.32992 10.9229 7.14679L9.11646 3.09398C9.01387 2.85474 8.83646 2.65522 8.61085 2.52537C8.38524 2.39552 8.1236 2.34234 7.86521 2.37382C6.7422 2.52146 5.71137 3.07296 4.96535 3.92525C4.21933 4.77755 3.80918 5.87232 3.81153 7.00499C3.81153 13.7339 9.28575 19.2081 16.0147 19.2081C17.1473 19.2103 18.242 18.8001 19.0942 18.0541C19.9465 17.3081 20.498 16.2774 20.6458 15.1544C20.6772 14.8973 20.6248 14.6368 20.4963 14.4118C20.3678 14.1868 20.17 14.0094 19.9325 13.9058ZM16.0147 18.1769C9.85466 18.1769 4.84278 13.165 4.84278 7.00499C4.83991 6.12321 5.15818 5.27055 5.73812 4.60631C6.31806 3.94208 7.12 3.51171 7.99411 3.39562H8.01388C8.04851 3.39626 8.08214 3.40736 8.11035 3.42745C8.13857 3.44754 8.16006 3.47568 8.172 3.5082L9.98528 7.55671C9.99563 7.57922 10.001 7.6037 10.001 7.62847C10.001 7.65324 9.99563 7.67772 9.98528 7.70023L8.17114 9.85382C8.15761 9.86919 8.14526 9.88557 8.13419 9.90281C8.02067 10.0761 7.95382 10.2758 7.94012 10.4825C7.92642 10.6892 7.96633 10.896 8.05599 11.0827C8.81825 12.6434 10.3909 14.204 11.9687 14.9662C12.1566 15.0554 12.3643 15.0943 12.5717 15.0793C12.7791 15.0642 12.9791 14.9957 13.1521 14.8803C13.1684 14.8691 13.1847 14.8571 13.2002 14.8442L15.3211 13.0395C15.3421 13.0283 15.3652 13.0217 15.389 13.0202C15.4127 13.0187 15.4365 13.0224 15.4586 13.0309L19.5192 14.8502C19.5524 14.8644 19.5802 14.8885 19.5989 14.9194C19.6176 14.9502 19.6261 14.9862 19.6232 15.0221C19.5077 15.8966 19.0777 16.6992 18.4136 17.2797C17.7495 17.8603 16.8968 18.1792 16.0147 18.1769Z" fill="white"/>
</g>
</svg>
