<svg width="83" height="82" viewBox="0 0 83 82" fill="none" xmlns="http://www.w3.org/2000/svg">
<g id="lets-icons:done-ring-round">
<g id="Group">
<path id="Vector" d="M31.25 34.1666L42.3815 42.517C43.0711 43.0342 43.9308 43.2716 44.7881 43.1816C45.6454 43.0916 46.437 42.6809 47.0043 42.0318L68.8333 17.0833" stroke="#F6F9EC" stroke-width="2" stroke-linecap="round"/>
<path id="Vector_2" d="M72.25 41C72.2501 47.4251 70.2376 53.6889 66.4952 58.9116C62.7527 64.1342 57.4683 68.0534 51.3841 70.1187C45.3 72.184 38.7217 72.2915 32.5733 70.4263C26.4249 68.5611 21.0151 64.8168 17.1039 59.7193C13.1927 54.6218 10.9764 48.4272 10.7664 42.0055C10.5565 35.5838 12.3633 29.2576 15.9332 23.9155C19.503 18.5734 24.6566 14.4837 30.6701 12.2208C36.6835 9.9579 43.2548 9.63552 49.4608 11.2989" stroke="#F6F9EC" stroke-width="2" stroke-linecap="round"/>
</g>
</g>
</svg>
