<svg width="238" height="238" viewBox="0 0 238 238" fill="none" xmlns="http://www.w3.org/2000/svg">
<g id="Sketch-annotation-element-stroke-line-arrow-spiral-down-5">
<path id="Vector" d="M52.0059 77.1485C55.7364 70.3889 60.9568 61.3972 65.7274 55.4409M65.7274 55.4409C66.2769 54.7544 69.98 60.2168 70.1294 60.4831C73.4129 66.3199 75.8319 72.4074 78.164 78.6645M65.7274 55.4409C54.0109 95.727 69.9205 135.049 97.2205 147.272C99.9262 148.483 102.872 149.799 105.923 150.847M105.923 150.847C110.781 152.515 115.904 153.504 120.742 152.311C125.206 151.21 130.558 147.894 131.851 143.26C134.265 134.603 124.532 127.721 116.475 130.901C109.394 133.695 104.031 143.558 105.923 150.847ZM105.923 150.847C105.963 151 106.006 151.153 106.052 151.304C117.258 187.84 162.186 188.445 186.541 168.831" stroke="#68842E" stroke-miterlimit="1.5" stroke-linecap="round" stroke-linejoin="round" stroke-dasharray="10.64 10.64"/>
</g>
</svg>
