<svg width="19" height="19" viewBox="0 0 19 19" fill="none" xmlns="http://www.w3.org/2000/svg">
<g id="uit:telegram-alt">
<path id="Vector" d="M16.8278 2.20361C16.6661 2.06957 16.4711 1.98178 16.2635 1.94956C16.0559 1.91735 15.8435 1.9419 15.6488 2.02061L2.21104 7.44536C1.99389 7.5346 1.80902 7.68776 1.68096 7.88453C1.55291 8.0813 1.48773 8.31236 1.49408 8.54704C1.50042 8.78173 1.578 9.00893 1.7165 9.19849C1.855 9.38804 2.04788 9.531 2.26954 9.60836L5.16904 10.6149L6.74029 15.8094C6.74329 15.8199 6.75304 15.8266 6.75753 15.8364C6.77372 15.8778 6.79736 15.9159 6.82729 15.9489C6.87275 15.9996 6.93143 16.0368 6.99679 16.0561C7.00429 16.0591 7.00954 16.0659 7.01704 16.0674H7.02154L7.02379 16.0681C7.08181 16.0806 7.1421 16.0775 7.19854 16.0591C7.20454 16.0576 7.21054 16.0576 7.21729 16.0554C7.27147 16.0364 7.3205 16.005 7.36054 15.9639C7.36504 15.9586 7.37254 15.9579 7.37704 15.9534L9.63679 13.4589L12.9345 16.0126C13.1348 16.1694 13.3815 16.2541 13.6358 16.2541C14.1863 16.2541 14.661 15.8686 14.7743 15.3309L17.2208 3.31736C17.2623 3.11342 17.2476 2.90203 17.1784 2.70576C17.1092 2.50948 16.988 2.33567 16.8278 2.20286V2.20361ZM7.56004 11.6011L7.02979 14.1789L5.92354 10.5204L11.4098 7.66286L7.66204 11.4114C7.61014 11.4632 7.57466 11.5292 7.56004 11.6011ZM14.0393 15.1801C14.0252 15.2481 13.9939 15.3114 13.9483 15.3638C13.9027 15.4162 13.8444 15.456 13.779 15.4794C13.7152 15.5039 13.6461 15.5114 13.5785 15.5012C13.5109 15.4909 13.4472 15.4632 13.3935 15.4209L9.82129 12.6541C9.74661 12.5965 9.65295 12.5691 9.55898 12.5774C9.46501 12.5858 9.37764 12.6292 9.31429 12.6991L7.74154 14.4324L8.27104 11.8621L13.6628 6.46961C13.7259 6.40626 13.7643 6.32243 13.7711 6.23324C13.7779 6.14405 13.7525 6.05539 13.6997 5.98324C13.6468 5.91109 13.5699 5.86021 13.4828 5.83979C13.3957 5.81937 13.3042 5.83074 13.2248 5.87186L5.45254 9.92036L2.51479 8.89886C2.43689 8.87314 2.36896 8.82377 2.32043 8.75764C2.2719 8.6915 2.2452 8.61188 2.24404 8.52986C2.2403 8.44711 2.26241 8.36526 2.30729 8.29564C2.35218 8.22603 2.41762 8.17211 2.49454 8.14136L15.93 2.71661C15.9989 2.68736 16.0745 2.6779 16.1485 2.68929C16.2224 2.70069 16.2917 2.73249 16.3485 2.78111C16.4051 2.82685 16.4478 2.88741 16.4719 2.95601C16.496 3.02461 16.5005 3.09857 16.485 3.16961L14.0393 15.1809V15.1801Z" fill="white"/>
</g>
</svg>
